<?xml version="1.0" encoding="UTF-8" standalone="no"?>
<!-- Created with Inkscape (http://www.inkscape.org/) -->

<svg
   xmlns:dc="http://purl.org/dc/elements/1.1/"
   xmlns:cc="http://creativecommons.org/ns#"
   xmlns:rdf="http://www.w3.org/1999/02/22-rdf-syntax-ns#"
   xmlns:svg="http://www.w3.org/2000/svg"
   xmlns="http://www.w3.org/2000/svg"
   xmlns:sodipodi="http://sodipodi.sourceforge.net/DTD/sodipodi-0.dtd"
   xmlns:inkscape="http://www.inkscape.org/namespaces/inkscape"
   width="80"
   height="100"
   id="svg2"
   version="1.1"
   inkscape:version="0.48.1 "
   sodipodi:docname="unknown.svg"
   inkscape:export-filename="C:\wamp\www\hths\images\teachers\unknown.png"
   inkscape:export-xdpi="90"
   inkscape:export-ydpi="90">
  <defs
     id="defs4" />
  <sodipodi:namedview
     id="base"
     pagecolor="#ffffff"
     bordercolor="#666666"
     borderopacity="1.0"
     inkscape:pageopacity="0.0"
     inkscape:pageshadow="2"
     inkscape:zoom="3.959798"
     inkscape:cx="-23.387138"
     inkscape:cy="38.880042"
     inkscape:document-units="px"
     inkscape:current-layer="layer1"
     showgrid="false"
     width="80px"
     inkscape:window-width="1376"
     inkscape:window-height="878"
     inkscape:window-x="56"
     inkscape:window-y="-8"
     inkscape:window-maximized="0" />
  <metadata
     id="metadata7">
    <rdf:RDF>
      <cc:Work
         rdf:about="">
        <dc:format>image/svg+xml</dc:format>
        <dc:type
           rdf:resource="http://purl.org/dc/dcmitype/StillImage" />
        <dc:title></dc:title>
      </cc:Work>
    </rdf:RDF>
  </metadata>
  <g
     inkscape:label="Layer 1"
     inkscape:groupmode="layer"
     id="layer1"
     transform="translate(0,-952.36218)">
    <rect
       style="fill:#f2f2f2;fill-opacity:1;stroke:none"
       id="rect2991"
       width="80"
       height="100"
       x="0"
       y="952.36218" />
    <path
       style="fill:#a8a8a8;fill-opacity:1;stroke:none"
       d="m 0.25253813,1052.8469 c 0.0816297,-0.1399 -0.003516,-11.7024 0.10197641,-13.2799 8.18168556,-7.0565 27.27549846,-3.3863 29.04451346,-5.0635 1.511583,-3.9189 0.771661,-8.8188 0.742296,-10.8184 -5.685617,-2.0551 -7.665571,-7.5239 -8.639687,-9.7623 -2.380743,-5.4707 -3.050985,-13.0237 -1.905638,-19.42965 0.86342,-4.8292 3.711452,-10.74248 6.422863,-13.24185 7.317336,-6.74507 13.654178,-6.66348 20.450784,-4.93609 5.370269,1.36488 10.329917,5.97715 12.335846,11.14231 3.547743,9.13526 2.406051,22.96948 -2.798496,29.26638 -4.708803,5.697 -6.254912,4.957 -7.79016,7.1017 -0.316849,1.5504 0.200849,7.2103 1.785715,10.3335 1.596867,1.6016 16.459254,-0.3769 30.304576,5.3033 0.03516,0.4721 -0.252538,13.637 -0.252538,13.637"
       id="path2985"
       inkscape:connector-curvature="0"
       sodipodi:nodetypes="ccccsasaascccc" />
    <text
       xml:space="preserve"
       style="font-size:40px;font-style:normal;font-variant:normal;font-weight:normal;font-stretch:normal;line-height:125%;letter-spacing:0px;word-spacing:0px;fill:#d9d9d9;fill-opacity:1;stroke:none;font-family:Arial;-inkscape-font-specification:Arial"
       x="29.294422"
       y="1015.9966"
       id="text2987"
       sodipodi:linespacing="125%"><tspan
         sodipodi:role="line"
         id="tspan2989"
         x="29.294422"
         y="1015.9966"
         style="font-style:normal;font-variant:normal;font-weight:normal;font-stretch:normal;font-family:Verdana;-inkscape-font-specification:Verdana;fill:#d9d9d9;fill-opacity:1">?</tspan></text>
  </g>
</svg>
